<svg width="100%" height="100%" viewBox="0 0 1920 320" version="1.1" xmlns="http://www.w3.org/2000/svg" xmlns:xlink="http://www.w3.org/1999/xlink" xml:space="preserve" xmlns:serif="http://www.serif.com/" style="fill-rule:evenodd;clip-rule:evenodd;stroke-linecap:round;stroke-linejoin:round;stroke-miterlimit:1.5;">
    <style>
        .hex {
            fill: rgba(255, 124, 68, 1);
            stroke: black;
            stroke-width: 6.08px;
        }
    </style>
    <g transform="matrix(0.164582,0,0,0.164582,1415.85,220.29)">
        <path d="M698.205,390.756L849.759,478.256L849.759,653.256L698.205,740.756L546.65,653.256L546.65,478.256L698.205,390.756Z" class="hex"/>
    </g>
    <g transform="matrix(0.164582,0,0,0.164582,1465.5,220.29)">
        <path d="M698.205,390.756L849.759,478.256L849.759,653.256L698.205,740.756L546.65,653.256L546.65,478.256L698.205,390.756Z" class="hex"/>
    </g>
    <g transform="matrix(0.164582,0,0,0.164582,1515.42,220.29)">
        <path d="M698.205,390.756L849.759,478.256L849.759,653.256L698.205,740.756L546.65,653.256L546.65,478.256L698.205,390.756Z" class="hex"/>
    </g>
    <g transform="matrix(0.164582,0,0,0.164582,1565.65,220.29)">
        <path d="M698.205,390.756L849.759,478.256L849.759,653.256L698.205,740.756L546.65,653.256L546.65,478.256L698.205,390.756Z" class="hex"/>
    </g>
    <g transform="matrix(0.164582,0,0,0.164582,1615.57,220.29)">
        <path d="M698.205,390.756L849.759,478.256L849.759,653.256L698.205,740.756L546.65,653.256L546.65,478.256L698.205,390.756Z" class="hex"/>
    </g>
    <g transform="matrix(0.164582,0,0,0.164582,1665.66,220.29)">
        <path d="M698.205,390.756L849.759,478.256L849.759,653.256L698.205,740.756L546.65,653.256L546.65,478.256L698.205,390.756Z" class="hex"/>
    </g>
    <g transform="matrix(0.164582,0,0,0.164582,1715.59,220.29)">
        <path d="M698.205,390.756L849.759,478.256L849.759,653.256L698.205,740.756L546.65,653.256L546.65,478.256L698.205,390.756Z" class="hex"/>
    </g>
    <g transform="matrix(0.164582,0,0,0.164582,1765.81,220.29)">
        <path d="M698.205,390.756L849.759,478.256L849.759,653.256L698.205,740.756L546.65,653.256L546.65,478.256L698.205,390.756Z" class="hex"/>
    </g>
    <g transform="matrix(0.164582,0,0,0.164582,1815.74,220.29)">
        <path d="M698.205,390.756L849.759,478.256L849.759,653.256L698.205,740.756L546.65,653.256L546.65,478.256L698.205,390.756Z" class="hex"/>
    </g>
    <g transform="matrix(0.164582,0,0,0.164582,1138.87,-79.3303)">
        <path d="M698.205,390.756L849.759,478.256L849.759,653.256L698.205,740.756L546.65,653.256L546.65,478.256L698.205,390.756Z" class="hex"/>
    </g>
    <g transform="matrix(0.164582,0,0,0.164582,1188.8,-79.3303)">
        <path d="M698.205,390.756L849.759,478.256L849.759,653.256L698.205,740.756L546.65,653.256L546.65,478.256L698.205,390.756Z" class="hex"/>
    </g>
    <g transform="matrix(0.164582,0,0,0.164582,1238.89,-79.3303)">
        <path d="M698.205,390.756L849.759,478.256L849.759,653.256L698.205,740.756L546.65,653.256L546.65,478.256L698.205,390.756Z" class="hex"/>
    </g>
    <g transform="matrix(0.164582,0,0,0.164582,1288.82,-79.3303)">
        <path d="M698.205,390.756L849.759,478.256L849.759,653.256L698.205,740.756L546.65,653.256L546.65,478.256L698.205,390.756Z" class="hex"/>
    </g>
    <g transform="matrix(0.164582,0,0,0.164582,1339.04,-79.3303)">
        <path d="M698.205,390.756L849.759,478.256L849.759,653.256L698.205,740.756L546.65,653.256L546.65,478.256L698.205,390.756Z" class="hex"/>
    </g>
    <g transform="matrix(0.164582,0,0,0.164582,1388.97,-79.3303)">
        <path d="M698.205,390.756L849.759,478.256L849.759,653.256L698.205,740.756L546.65,653.256L546.65,478.256L698.205,390.756Z" class="hex"/>
    </g>
    <g transform="matrix(0.164582,0,0,0.164582,1438.61,-79.3303)">
        <path d="M698.205,390.756L849.759,478.256L849.759,653.256L698.205,740.756L546.65,653.256L546.65,478.256L698.205,390.756Z" class="hex"/>
    </g>
    <g transform="matrix(0.164582,0,0,0.164582,1488.54,-79.3303)">
        <path d="M698.205,390.756L849.759,478.256L849.759,653.256L698.205,740.756L546.65,653.256L546.65,478.256L698.205,390.756Z" class="hex"/>
    </g>
    <g transform="matrix(0.164582,0,0,0.164582,1538.76,-79.3303)">
        <path d="M698.205,390.756L849.759,478.256L849.759,653.256L698.205,740.756L546.65,653.256L546.65,478.256L698.205,390.756Z" class="hex"/>
    </g>
    <g transform="matrix(0.164582,0,0,0.164582,1588.69,-79.3303)">
        <path d="M698.205,390.756L849.759,478.256L849.759,653.256L698.205,740.756L546.65,653.256L546.65,478.256L698.205,390.756Z" class="hex"/>
    </g>
    <g transform="matrix(0.164582,0,0,0.164582,1638.78,-79.3303)">
        <path d="M698.205,390.756L849.759,478.256L849.759,653.256L698.205,740.756L546.65,653.256L546.65,478.256L698.205,390.756Z" class="hex"/>
    </g>
    <g transform="matrix(0.164582,0,0,0.164582,1688.71,-79.3303)">
        <path d="M698.205,390.756L849.759,478.256L849.759,653.256L698.205,740.756L546.65,653.256L546.65,478.256L698.205,390.756Z" class="hex"/>
    </g>
    <g transform="matrix(0.164582,0,0,0.164582,1738.93,-79.3303)">
        <path d="M698.205,390.756L849.759,478.256L849.759,653.256L698.205,740.756L546.65,653.256L546.65,478.256L698.205,390.756Z" class="hex"/>
    </g>
    <g transform="matrix(0.164582,0,0,0.164582,1788.86,-79.3303)">
        <path d="M698.205,390.756L849.759,478.256L849.759,653.256L698.205,740.756L546.65,653.256L546.65,478.256L698.205,390.756Z" class="hex"/>
    </g>
    <g transform="matrix(0.164582,0,0,0.164582,1063.63,-36.6058)">
        <path d="M698.205,390.756L849.759,478.256L849.759,653.256L698.205,740.756L546.65,653.256L546.65,478.256L698.205,390.756Z" class="hex"/>
    </g>
    <g transform="matrix(0.164582,0,0,0.164582,1113.56,-36.6058)">
        <path d="M698.205,390.756L849.759,478.256L849.759,653.256L698.205,740.756L546.65,653.256L546.65,478.256L698.205,390.756Z" class="hex"/>
    </g>
    <g transform="matrix(0.164582,0,0,0.164582,1163.78,-36.6058)">
        <path d="M698.205,390.756L849.759,478.256L849.759,653.256L698.205,740.756L546.65,653.256L546.65,478.256L698.205,390.756Z" class="hex"/>
    </g>
    <g transform="matrix(0.164582,0,0,0.164582,1213.71,-36.6058)">
        <path d="M698.205,390.756L849.759,478.256L849.759,653.256L698.205,740.756L546.65,653.256L546.65,478.256L698.205,390.756Z" class="hex"/>
    </g>
    <g transform="matrix(0.164582,0,0,0.164582,1263.8,-36.6058)">
        <path d="M698.205,390.756L849.759,478.256L849.759,653.256L698.205,740.756L546.65,653.256L546.65,478.256L698.205,390.756Z" class="hex"/>
    </g>
    <g transform="matrix(0.164582,0,0,0.164582,1313.73,-36.6058)">
        <path d="M698.205,390.756L849.759,478.256L849.759,653.256L698.205,740.756L546.65,653.256L546.65,478.256L698.205,390.756Z" class="hex"/>
    </g>
    <g transform="matrix(0.164582,0,0,0.164582,1363.95,-36.6058)">
        <path d="M698.205,390.756L849.759,478.256L849.759,653.256L698.205,740.756L546.65,653.256L546.65,478.256L698.205,390.756Z" class="hex"/>
    </g>
    <g transform="matrix(0.164582,0,0,0.164582,1413.88,-36.6058)">
        <path d="M698.205,390.756L849.759,478.256L849.759,653.256L698.205,740.756L546.65,653.256L546.65,478.256L698.205,390.756Z" class="hex"/>
    </g>
    <g transform="matrix(0.164582,0,0,0.164582,1463.53,-36.6058)">
        <path d="M698.205,390.756L849.759,478.256L849.759,653.256L698.205,740.756L546.65,653.256L546.65,478.256L698.205,390.756Z" class="hex"/>
    </g>
    <g transform="matrix(0.164582,0,0,0.164582,1513.45,-36.6058)">
        <path d="M698.205,390.756L849.759,478.256L849.759,653.256L698.205,740.756L546.65,653.256L546.65,478.256L698.205,390.756Z" class="hex"/>
    </g>
    <g transform="matrix(0.164582,0,0,0.164582,1563.67,-36.6058)">
        <path d="M698.205,390.756L849.759,478.256L849.759,653.256L698.205,740.756L546.65,653.256L546.65,478.256L698.205,390.756Z" class="hex"/>
    </g>
    <g transform="matrix(0.164582,0,0,0.164582,1613.6,-36.6058)">
        <path d="M698.205,390.756L849.759,478.256L849.759,653.256L698.205,740.756L546.65,653.256L546.65,478.256L698.205,390.756Z" class="hex"/>
    </g>
    <g transform="matrix(0.164582,0,0,0.164582,1663.69,-36.6058)">
        <path d="M698.205,390.756L849.759,478.256L849.759,653.256L698.205,740.756L546.65,653.256L546.65,478.256L698.205,390.756Z" class="hex"/>
    </g>
    <g transform="matrix(0.164582,0,0,0.164582,1713.62,-36.6058)">
        <path d="M698.205,390.756L849.759,478.256L849.759,653.256L698.205,740.756L546.65,653.256L546.65,478.256L698.205,390.756Z" class="hex"/>
    </g>
    <g transform="matrix(0.164582,0,0,0.164582,1763.84,-36.6058)">
        <path d="M698.205,390.756L849.759,478.256L849.759,653.256L698.205,740.756L546.65,653.256L546.65,478.256L698.205,390.756Z" class="hex"/>
    </g>
    <g transform="matrix(0.164582,0,0,0.164582,1813.77,-36.6058)">
        <path d="M698.205,390.756L849.759,478.256L849.759,653.256L698.205,740.756L546.65,653.256L546.65,478.256L698.205,390.756Z" class="hex"/>
    </g>
    <g transform="matrix(0.164582,0,0,0.164582,1139.55,6.58842)">
        <path d="M698.205,390.756L849.759,478.256L849.759,653.256L698.205,740.756L546.65,653.256L546.65,478.256L698.205,390.756Z" class="hex"/>
    </g>
    <g transform="matrix(0.164582,0,0,0.164582,1189.47,6.58842)">
        <path d="M698.205,390.756L849.759,478.256L849.759,653.256L698.205,740.756L546.65,653.256L546.65,478.256L698.205,390.756Z" class="hex"/>
    </g>
    <g transform="matrix(0.164582,0,0,0.164582,1239.57,6.58842)">
        <path d="M698.205,390.756L849.759,478.256L849.759,653.256L698.205,740.756L546.65,653.256L546.65,478.256L698.205,390.756Z" class="hex"/>
    </g>
    <g transform="matrix(0.164582,0,0,0.164582,1289.49,6.58842)">
        <path d="M698.205,390.756L849.759,478.256L849.759,653.256L698.205,740.756L546.65,653.256L546.65,478.256L698.205,390.756Z" class="hex"/>
    </g>
    <g transform="matrix(0.164582,0,0,0.164582,1339.72,6.58842)">
        <path d="M698.205,390.756L849.759,478.256L849.759,653.256L698.205,740.756L546.65,653.256L546.65,478.256L698.205,390.756Z" class="hex"/>
    </g>
    <g transform="matrix(0.164582,0,0,0.164582,1389.64,6.58842)">
        <path d="M698.205,390.756L849.759,478.256L849.759,653.256L698.205,740.756L546.65,653.256L546.65,478.256L698.205,390.756Z" class="hex"/>
    </g>
    <g transform="matrix(0.164582,0,0,0.164582,1439.29,6.58842)">
        <path d="M698.205,390.756L849.759,478.256L849.759,653.256L698.205,740.756L546.65,653.256L546.65,478.256L698.205,390.756Z" class="hex"/>
    </g>
    <g transform="matrix(0.164582,0,0,0.164582,1489.21,6.58842)">
        <path d="M698.205,390.756L849.759,478.256L849.759,653.256L698.205,740.756L546.65,653.256L546.65,478.256L698.205,390.756Z" class="hex"/>
    </g>
    <g transform="matrix(0.164582,0,0,0.164582,1539.44,6.58842)">
        <path d="M698.205,390.756L849.759,478.256L849.759,653.256L698.205,740.756L546.65,653.256L546.65,478.256L698.205,390.756Z" class="hex"/>
    </g>
    <g transform="matrix(0.164582,0,0,0.164582,1589.36,6.58842)">
        <path d="M698.205,390.756L849.759,478.256L849.759,653.256L698.205,740.756L546.65,653.256L546.65,478.256L698.205,390.756Z" class="hex"/>
    </g>
    <g transform="matrix(0.164582,0,0,0.164582,1639.46,6.58842)">
        <path d="M698.205,390.756L849.759,478.256L849.759,653.256L698.205,740.756L546.65,653.256L546.65,478.256L698.205,390.756Z" class="hex"/>
    </g>
    <g transform="matrix(0.164582,0,0,0.164582,1689.38,6.58842)">
        <path d="M698.205,390.756L849.759,478.256L849.759,653.256L698.205,740.756L546.65,653.256L546.65,478.256L698.205,390.756Z" class="hex"/>
    </g>
    <g transform="matrix(0.164582,0,0,0.164582,1739.61,6.58842)">
        <path d="M698.205,390.756L849.759,478.256L849.759,653.256L698.205,740.756L546.65,653.256L546.65,478.256L698.205,390.756Z" class="hex"/>
    </g>
    <g transform="matrix(0.164582,0,0,0.164582,1789.53,6.58842)">
        <path d="M698.205,390.756L849.759,478.256L849.759,653.256L698.205,740.756L546.65,653.256L546.65,478.256L698.205,390.756Z" class="hex"/>
    </g>
    <g transform="matrix(0.164582,0,0,0.164582,1064.31,49.3129)">
        <path d="M698.205,390.756L849.759,478.256L849.759,653.256L698.205,740.756L546.65,653.256L546.65,478.256L698.205,390.756Z" class="hex"/>
    </g>
    <g transform="matrix(0.164582,0,0,0.164582,1114.23,49.3129)">
        <path d="M698.205,390.756L849.759,478.256L849.759,653.256L698.205,740.756L546.65,653.256L546.65,478.256L698.205,390.756Z" class="hex"/>
    </g>
    <g transform="matrix(0.164582,0,0,0.164582,1164.46,49.3129)">
        <path d="M698.205,390.756L849.759,478.256L849.759,653.256L698.205,740.756L546.65,653.256L546.65,478.256L698.205,390.756Z" class="hex"/>
    </g>
    <g transform="matrix(0.164582,0,0,0.164582,1214.38,49.3129)">
        <path d="M698.205,390.756L849.759,478.256L849.759,653.256L698.205,740.756L546.65,653.256L546.65,478.256L698.205,390.756Z" class="hex"/>
    </g>
    <g transform="matrix(0.164582,0,0,0.164582,1264.48,49.3129)">
        <path d="M698.205,390.756L849.759,478.256L849.759,653.256L698.205,740.756L546.65,653.256L546.65,478.256L698.205,390.756Z" class="hex"/>
    </g>
    <g transform="matrix(0.164582,0,0,0.164582,1314.4,49.3129)">
        <path d="M698.205,390.756L849.759,478.256L849.759,653.256L698.205,740.756L546.65,653.256L546.65,478.256L698.205,390.756Z" class="hex"/>
    </g>
    <g transform="matrix(0.164582,0,0,0.164582,1364.63,49.3129)">
        <path d="M698.205,390.756L849.759,478.256L849.759,653.256L698.205,740.756L546.65,653.256L546.65,478.256L698.205,390.756Z" class="hex"/>
    </g>
    <g transform="matrix(0.164582,0,0,0.164582,1414.55,49.3129)">
        <path d="M698.205,390.756L849.759,478.256L849.759,653.256L698.205,740.756L546.65,653.256L546.65,478.256L698.205,390.756Z" class="hex"/>
    </g>
    <g transform="matrix(0.164582,0,0,0.164582,1464.2,49.3129)">
        <path d="M698.205,390.756L849.759,478.256L849.759,653.256L698.205,740.756L546.65,653.256L546.65,478.256L698.205,390.756Z" class="hex"/>
    </g>
    <g transform="matrix(0.164582,0,0,0.164582,1514.12,49.3129)">
        <path d="M698.205,390.756L849.759,478.256L849.759,653.256L698.205,740.756L546.65,653.256L546.65,478.256L698.205,390.756Z" class="hex"/>
    </g>
    <g transform="matrix(0.164582,0,0,0.164582,1564.35,49.3129)">
        <path d="M698.205,390.756L849.759,478.256L849.759,653.256L698.205,740.756L546.65,653.256L546.65,478.256L698.205,390.756Z" class="hex"/>
    </g>
    <g transform="matrix(0.164582,0,0,0.164582,1614.27,49.3129)">
        <path d="M698.205,390.756L849.759,478.256L849.759,653.256L698.205,740.756L546.65,653.256L546.65,478.256L698.205,390.756Z" class="hex"/>
    </g>
    <g transform="matrix(0.164582,0,0,0.164582,1664.37,49.3129)">
        <path d="M698.205,390.756L849.759,478.256L849.759,653.256L698.205,740.756L546.65,653.256L546.65,478.256L698.205,390.756Z" class="hex"/>
    </g>
    <g transform="matrix(0.164582,0,0,0.164582,1714.29,49.3129)">
        <path d="M698.205,390.756L849.759,478.256L849.759,653.256L698.205,740.756L546.65,653.256L546.65,478.256L698.205,390.756Z" class="hex"/>
    </g>
    <g transform="matrix(0.164582,0,0,0.164582,1764.52,49.3129)">
        <path d="M698.205,390.756L849.759,478.256L849.759,653.256L698.205,740.756L546.65,653.256L546.65,478.256L698.205,390.756Z" class="hex"/>
    </g>
    <g transform="matrix(0.164582,0,0,0.164582,1814.44,49.3129)">
        <path d="M698.205,390.756L849.759,478.256L849.759,653.256L698.205,740.756L546.65,653.256L546.65,478.256L698.205,390.756Z" class="hex"/>
    </g>
    <g transform="matrix(0.164582,0,0,0.164582,1040.02,91.6469)">
        <path d="M698.205,390.756L849.759,478.256L849.759,653.256L698.205,740.756L546.65,653.256L546.65,478.256L698.205,390.756Z" class="hex"/>
    </g>
    <g transform="matrix(0.164582,0,0,0.164582,1089.95,91.6469)">
        <path d="M698.205,390.756L849.759,478.256L849.759,653.256L698.205,740.756L546.65,653.256L546.65,478.256L698.205,390.756Z" class="hex"/>
    </g>
    <g transform="matrix(0.164582,0,0,0.164582,1140.17,91.6469)">
        <path d="M698.205,390.756L849.759,478.256L849.759,653.256L698.205,740.756L546.65,653.256L546.65,478.256L698.205,390.756Z" class="hex"/>
    </g>
    <g transform="matrix(0.164582,0,0,0.164582,1190.09,91.6469)">
        <path d="M698.205,390.756L849.759,478.256L849.759,653.256L698.205,740.756L546.65,653.256L546.65,478.256L698.205,390.756Z" class="hex"/>
    </g>
    <g transform="matrix(0.164582,0,0,0.164582,1240.19,91.6469)">
        <path d="M698.205,390.756L849.759,478.256L849.759,653.256L698.205,740.756L546.65,653.256L546.65,478.256L698.205,390.756Z" class="hex"/>
    </g>
    <g transform="matrix(0.164582,0,0,0.164582,1290.11,91.6469)">
        <path d="M698.205,390.756L849.759,478.256L849.759,653.256L698.205,740.756L546.65,653.256L546.65,478.256L698.205,390.756Z" class="hex"/>
    </g>
    <g transform="matrix(0.164582,0,0,0.164582,1340.34,91.6469)">
        <path d="M698.205,390.756L849.759,478.256L849.759,653.256L698.205,740.756L546.65,653.256L546.65,478.256L698.205,390.756Z" class="hex"/>
    </g>
    <g transform="matrix(0.164582,0,0,0.164582,1390.26,91.6469)">
        <path d="M698.205,390.756L849.759,478.256L849.759,653.256L698.205,740.756L546.65,653.256L546.65,478.256L698.205,390.756Z" class="hex"/>
    </g>
    <g transform="matrix(0.164582,0,0,0.164582,1439.91,91.6469)">
        <path d="M698.205,390.756L849.759,478.256L849.759,653.256L698.205,740.756L546.65,653.256L546.65,478.256L698.205,390.756Z" class="hex"/>
    </g>
    <g transform="matrix(0.164582,0,0,0.164582,1489.84,91.6469)">
        <path d="M698.205,390.756L849.759,478.256L849.759,653.256L698.205,740.756L546.65,653.256L546.65,478.256L698.205,390.756Z" class="hex"/>
    </g>
    <g transform="matrix(0.164582,0,0,0.164582,1540.06,91.6469)">
        <path d="M698.205,390.756L849.759,478.256L849.759,653.256L698.205,740.756L546.65,653.256L546.65,478.256L698.205,390.756Z" class="hex"/>
    </g>
    <g transform="matrix(0.164582,0,0,0.164582,1589.99,91.6469)">
        <path d="M698.205,390.756L849.759,478.256L849.759,653.256L698.205,740.756L546.65,653.256L546.65,478.256L698.205,390.756Z" class="hex"/>
    </g>
    <g transform="matrix(0.164582,0,0,0.164582,1640.08,91.6469)">
        <path d="M698.205,390.756L849.759,478.256L849.759,653.256L698.205,740.756L546.65,653.256L546.65,478.256L698.205,390.756Z" class="hex"/>
    </g>
    <g transform="matrix(0.164582,0,0,0.164582,1690,91.6469)">
        <path d="M698.205,390.756L849.759,478.256L849.759,653.256L698.205,740.756L546.65,653.256L546.65,478.256L698.205,390.756Z" class="hex"/>
    </g>
    <g transform="matrix(0.164582,0,0,0.164582,1740.23,91.6469)">
        <path d="M698.205,390.756L849.759,478.256L849.759,653.256L698.205,740.756L546.65,653.256L546.65,478.256L698.205,390.756Z" class="hex"/>
    </g>
    <g transform="matrix(0.164582,0,0,0.164582,1790.15,91.6469)">
        <path d="M698.205,390.756L849.759,478.256L849.759,653.256L698.205,740.756L546.65,653.256L546.65,478.256L698.205,390.756Z" class="hex"/>
    </g>
    <g transform="matrix(0.164582,0,0,0.164582,1064.93,134.371)">
        <path d="M698.205,390.756L849.759,478.256L849.759,653.256L698.205,740.756L546.65,653.256L546.65,478.256L698.205,390.756Z" class="hex"/>
    </g>
    <g transform="matrix(0.164582,0,0,0.164582,1114.86,134.371)">
        <path d="M698.205,390.756L849.759,478.256L849.759,653.256L698.205,740.756L546.65,653.256L546.65,478.256L698.205,390.756Z" class="hex"/>
    </g>
    <g transform="matrix(0.164582,0,0,0.164582,1165.08,134.371)">
        <path d="M698.205,390.756L849.759,478.256L849.759,653.256L698.205,740.756L546.65,653.256L546.65,478.256L698.205,390.756Z" class="hex"/>
    </g>
    <g transform="matrix(0.164582,0,0,0.164582,1215,134.371)">
        <path d="M698.205,390.756L849.759,478.256L849.759,653.256L698.205,740.756L546.65,653.256L546.65,478.256L698.205,390.756Z" class="hex"/>
    </g>
    <g transform="matrix(0.164582,0,0,0.164582,1265.1,134.371)">
        <path d="M698.205,390.756L849.759,478.256L849.759,653.256L698.205,740.756L546.65,653.256L546.65,478.256L698.205,390.756Z" class="hex"/>
    </g>
    <g transform="matrix(0.164582,0,0,0.164582,1315.02,134.371)">
        <path d="M698.205,390.756L849.759,478.256L849.759,653.256L698.205,740.756L546.65,653.256L546.65,478.256L698.205,390.756Z" class="hex"/>
    </g>
    <g transform="matrix(0.164582,0,0,0.164582,1365.25,134.371)">
        <path d="M698.205,390.756L849.759,478.256L849.759,653.256L698.205,740.756L546.65,653.256L546.65,478.256L698.205,390.756Z" class="hex"/>
    </g>
    <g transform="matrix(0.164582,0,0,0.164582,1415.17,134.371)">
        <path d="M698.205,390.756L849.759,478.256L849.759,653.256L698.205,740.756L546.65,653.256L546.65,478.256L698.205,390.756Z" class="hex"/>
    </g>
    <g transform="matrix(0.164582,0,0,0.164582,1464.82,134.371)">
        <path d="M698.205,390.756L849.759,478.256L849.759,653.256L698.205,740.756L546.65,653.256L546.65,478.256L698.205,390.756Z" class="hex"/>
    </g>
    <g transform="matrix(0.164582,0,0,0.164582,1514.75,134.371)">
        <path d="M698.205,390.756L849.759,478.256L849.759,653.256L698.205,740.756L546.65,653.256L546.65,478.256L698.205,390.756Z" class="hex"/>
    </g>
    <g transform="matrix(0.164582,0,0,0.164582,1564.97,134.371)">
        <path d="M698.205,390.756L849.759,478.256L849.759,653.256L698.205,740.756L546.65,653.256L546.65,478.256L698.205,390.756Z" class="hex"/>
    </g>
    <g transform="matrix(0.164582,0,0,0.164582,1614.9,134.371)">
        <path d="M698.205,390.756L849.759,478.256L849.759,653.256L698.205,740.756L546.65,653.256L546.65,478.256L698.205,390.756Z" class="hex"/>
    </g>
    <g transform="matrix(0.164582,0,0,0.164582,1664.99,134.371)">
        <path d="M698.205,390.756L849.759,478.256L849.759,653.256L698.205,740.756L546.65,653.256L546.65,478.256L698.205,390.756Z" class="hex"/>
    </g>
    <g transform="matrix(0.164582,0,0,0.164582,1714.91,134.371)">
        <path d="M698.205,390.756L849.759,478.256L849.759,653.256L698.205,740.756L546.65,653.256L546.65,478.256L698.205,390.756Z" class="hex"/>
    </g>
    <g transform="matrix(0.164582,0,0,0.164582,1765.14,134.371)">
        <path d="M698.205,390.756L849.759,478.256L849.759,653.256L698.205,740.756L546.65,653.256L546.65,478.256L698.205,390.756Z" class="hex"/>
    </g>
    <g transform="matrix(0.164582,0,0,0.164582,1815.06,134.371)">
        <path d="M698.205,390.756L849.759,478.256L849.759,653.256L698.205,740.756L546.65,653.256L546.65,478.256L698.205,390.756Z" class="hex"/>
    </g>
    <g transform="matrix(0.164582,0,0,0.164582,1040.69,177.566)">
        <path d="M698.205,390.756L849.759,478.256L849.759,653.256L698.205,740.756L546.65,653.256L546.65,478.256L698.205,390.756Z" class="hex"/>
    </g>
    <g transform="matrix(0.164582,0,0,0.164582,1090.62,177.566)">
        <path d="M698.205,390.756L849.759,478.256L849.759,653.256L698.205,740.756L546.65,653.256L546.65,478.256L698.205,390.756Z" class="hex"/>
    </g>
    <g transform="matrix(0.164582,0,0,0.164582,1140.84,177.566)">
        <path d="M698.205,390.756L849.759,478.256L849.759,653.256L698.205,740.756L546.65,653.256L546.65,478.256L698.205,390.756Z" class="hex"/>
    </g>
    <g transform="matrix(0.164582,0,0,0.164582,1190.77,177.566)">
        <path d="M698.205,390.756L849.759,478.256L849.759,653.256L698.205,740.756L546.65,653.256L546.65,478.256L698.205,390.756Z" class="hex"/>
    </g>
    <g transform="matrix(0.164582,0,0,0.164582,1240.86,177.566)">
        <path d="M698.205,390.756L849.759,478.256L849.759,653.256L698.205,740.756L546.65,653.256L546.65,478.256L698.205,390.756Z" class="hex"/>
    </g>
    <g transform="matrix(0.164582,0,0,0.164582,1290.79,177.566)">
        <path d="M698.205,390.756L849.759,478.256L849.759,653.256L698.205,740.756L546.65,653.256L546.65,478.256L698.205,390.756Z" class="hex"/>
    </g>
    <g transform="matrix(0.164582,0,0,0.164582,1341.01,177.566)">
        <path d="M698.205,390.756L849.759,478.256L849.759,653.256L698.205,740.756L546.65,653.256L546.65,478.256L698.205,390.756Z" class="hex"/>
    </g>
    <g transform="matrix(0.164582,0,0,0.164582,1390.94,177.566)">
        <path d="M698.205,390.756L849.759,478.256L849.759,653.256L698.205,740.756L546.65,653.256L546.65,478.256L698.205,390.756Z" class="hex"/>
    </g>
    <g transform="matrix(0.164582,0,0,0.164582,1440.59,177.566)">
        <path d="M698.205,390.756L849.759,478.256L849.759,653.256L698.205,740.756L546.65,653.256L546.65,478.256L698.205,390.756Z" class="hex"/>
    </g>
    <g transform="matrix(0.164582,0,0,0.164582,1490.51,177.566)">
        <path d="M698.205,390.756L849.759,478.256L849.759,653.256L698.205,740.756L546.65,653.256L546.65,478.256L698.205,390.756Z" class="hex"/>
    </g>
    <g transform="matrix(0.164582,0,0,0.164582,1540.74,177.566)">
        <path d="M698.205,390.756L849.759,478.256L849.759,653.256L698.205,740.756L546.65,653.256L546.65,478.256L698.205,390.756Z" class="hex"/>
    </g>
    <g transform="matrix(0.164582,0,0,0.164582,1590.66,177.566)">
        <path d="M698.205,390.756L849.759,478.256L849.759,653.256L698.205,740.756L546.65,653.256L546.65,478.256L698.205,390.756Z" class="hex"/>
    </g>
    <g transform="matrix(0.164582,0,0,0.164582,1640.75,177.566)">
        <path d="M698.205,390.756L849.759,478.256L849.759,653.256L698.205,740.756L546.65,653.256L546.65,478.256L698.205,390.756Z" class="hex"/>
    </g>
    <g transform="matrix(0.164582,0,0,0.164582,1690.68,177.566)">
        <path d="M698.205,390.756L849.759,478.256L849.759,653.256L698.205,740.756L546.65,653.256L546.65,478.256L698.205,390.756Z" class="hex"/>
    </g>
    <g transform="matrix(0.164582,0,0,0.164582,1740.9,177.566)">
        <path d="M698.205,390.756L849.759,478.256L849.759,653.256L698.205,740.756L546.65,653.256L546.65,478.256L698.205,390.756Z" class="hex"/>
    </g>
    <g transform="matrix(0.164582,0,0,0.164582,1790.83,177.566)">
        <path d="M698.205,390.756L849.759,478.256L849.759,653.256L698.205,740.756L546.65,653.256L546.65,478.256L698.205,390.756Z" class="hex"/>
    </g>
    <g transform="matrix(0.164582,0,0,0.164582,1065.6,220.29)">
        <path d="M698.205,390.756L849.759,478.256L849.759,653.256L698.205,740.756L546.65,653.256L546.65,478.256L698.205,390.756Z" class="hex"/>
    </g>
    <g transform="matrix(0.164582,0,0,0.164582,1115.53,220.29)">
        <path d="M698.205,390.756L849.759,478.256L849.759,653.256L698.205,740.756L546.65,653.256L546.65,478.256L698.205,390.756Z" class="hex"/>
    </g>
    <g transform="matrix(0.164582,0,0,0.164582,1165.75,220.29)">
        <path d="M698.205,390.756L849.759,478.256L849.759,653.256L698.205,740.756L546.65,653.256L546.65,478.256L698.205,390.756Z" class="hex"/>
    </g>
    <g transform="matrix(0.164582,0,0,0.164582,1215.68,220.29)">
        <path d="M698.205,390.756L849.759,478.256L849.759,653.256L698.205,740.756L546.65,653.256L546.65,478.256L698.205,390.756Z" class="hex"/>
    </g>
    <g transform="matrix(0.164582,0,0,0.164582,890.17,91.6469)">
        <path d="M698.205,390.756L849.759,478.256L849.759,653.256L698.205,740.756L546.65,653.256L546.65,478.256L698.205,390.756Z" class="hex"/>
    </g>
    <g transform="matrix(0.164582,0,0,0.164582,940.095,91.6469)">
        <path d="M698.205,390.756L849.759,478.256L849.759,653.256L698.205,740.756L546.65,653.256L546.65,478.256L698.205,390.756Z" class="hex"/>
    </g>
    <g transform="matrix(0.164582,0,0,0.164582,814.931,134.371)">
        <path d="M698.205,390.756L849.759,478.256L849.759,653.256L698.205,740.756L546.65,653.256L546.65,478.256L698.205,390.756Z" class="hex"/>
    </g>
    <g transform="matrix(0.164582,0,0,0.164582,915.08,134.371)">
        <path d="M698.205,390.756L849.759,478.256L849.759,653.256L698.205,740.756L546.65,653.256L546.65,478.256L698.205,390.756Z" class="hex"/>
    </g>
    <g transform="matrix(0.164582,0,0,0.164582,965.005,134.371)">
        <path d="M698.205,390.756L849.759,478.256L849.759,653.256L698.205,740.756L546.65,653.256L546.65,478.256L698.205,390.756Z" class="hex"/>
    </g>
    <g transform="matrix(0.164582,0,0,0.164582,990.493,177.42)">
        <path d="M698.205,390.756L849.759,478.256L849.759,653.256L698.205,740.756L546.65,653.256L546.65,478.256L698.205,390.756Z" class="hex"/>
    </g>
    <g transform="matrix(0.164582,0,0,0.164582,790.694,177.566)">
        <path d="M698.205,390.756L849.759,478.256L849.759,653.256L698.205,740.756L546.65,653.256L546.65,478.256L698.205,390.756Z" class="hex"/>
    </g>
    <g transform="matrix(0.164582,0,0,0.164582,840.619,177.566)">
        <path d="M698.205,390.756L849.759,478.256L849.759,653.256L698.205,740.756L546.65,653.256L546.65,478.256L698.205,390.756Z" class="hex"/>
    </g>
    <g transform="matrix(0.164582,0,0,0.164582,890.844,177.566)">
        <path d="M698.205,390.756L849.759,478.256L849.759,653.256L698.205,740.756L546.65,653.256L546.65,478.256L698.205,390.756Z" class="hex"/>
    </g>
    <g transform="matrix(0.164582,0,0,0.164582,940.297,177.566)">
        <path d="M698.205,390.756L849.759,478.256L849.759,653.256L698.205,740.756L546.65,653.256L546.65,478.256L698.205,390.756Z" class="hex"/>
    </g>
    <g transform="matrix(0.164582,0,0,0.164582,765.459,220.29)">
        <path d="M698.205,390.756L849.759,478.256L849.759,653.256L698.205,740.756L546.65,653.256L546.65,478.256L698.205,390.756Z" class="hex"/>
    </g>
    <g transform="matrix(0.164582,0,0,0.164582,865.529,220.29)">
        <path d="M698.205,390.756L849.759,478.256L849.759,653.256L698.205,740.756L546.65,653.256L546.65,478.256L698.205,390.756Z" class="hex"/>
    </g>
    <g transform="matrix(0.164582,0,0,0.164582,815.714,220.29)">
        <path d="M698.205,390.756L849.759,478.256L849.759,653.256L698.205,740.756L546.65,653.256L546.65,478.256L698.205,390.756Z" class="hex"/>
    </g>
    <g transform="matrix(0.164582,0,0,0.164582,915.754,220.29)">
        <path d="M698.205,390.756L849.759,478.256L849.759,653.256L698.205,740.756L546.65,653.256L546.65,478.256L698.205,390.756Z" class="hex"/>
    </g>
    <g transform="matrix(0.164582,0,0,0.164582,965.679,220.29)">
        <path d="M698.205,390.756L849.759,478.256L849.759,653.256L698.205,740.756L546.65,653.256L546.65,478.256L698.205,390.756Z" class="hex"/>
    </g>
    <g transform="matrix(0.164582,0,0,0.164582,965.679,220.29)">
        <path d="M698.205,390.756L849.759,478.256L849.759,653.256L698.205,740.756L546.65,653.256L546.65,478.256L698.205,390.756Z" class="hex"/>
    </g>
    <g transform="matrix(0.164582,0,0,0.164582,690.594,177.566)">
        <path d="M698.205,390.756L849.759,478.256L849.759,653.256L698.205,740.756L546.65,653.256L546.65,478.256L698.205,390.756Z" class="hex"/>
    </g>
    <g transform="matrix(0.164582,0,0,0.164582,565.43,220.29)">
        <path d="M698.205,390.756L849.759,478.256L849.759,653.256L698.205,740.756L546.65,653.256L546.65,478.256L698.205,390.756Z" class="hex"/>
    </g>
    <g transform="matrix(0.164582,0,0,0.164582,615.355,220.29)">
        <path d="M698.205,390.756L849.759,478.256L849.759,653.256L698.205,740.756L546.65,653.256L546.65,478.256L698.205,390.756Z" class="hex"/>
    </g>
    <g transform="matrix(0.164582,0,0,0.164582,665.58,220.29)">
        <path d="M698.205,390.756L849.759,478.256L849.759,653.256L698.205,740.756L546.65,653.256L546.65,478.256L698.205,390.756Z" class="hex"/>
    </g>
    <g transform="matrix(0.164582,0,0,0.164582,715.504,220.29)">
        <path d="M698.205,390.756L849.759,478.256L849.759,653.256L698.205,740.756L546.65,653.256L546.65,478.256L698.205,390.756Z" class="hex"/>
    </g>
    <g transform="matrix(0.164582,0,0,0.164582,715.504,220.29)">
        <path d="M698.205,390.756L849.759,478.256L849.759,653.256L698.205,740.756L546.65,653.256L546.65,478.256L698.205,390.756Z" class="hex"/>
    </g>
    <g transform="matrix(0.164582,0,0,0.164582,1014.38,49.3129)">
        <path d="M698.205,390.756L849.759,478.256L849.759,653.256L698.205,740.756L546.65,653.256L546.65,478.256L698.205,390.756Z" class="hex"/>
    </g>
    <g transform="matrix(0.164582,0,0,0.164582,1015,134.371)">
        <path d="M698.205,390.756L849.759,478.256L849.759,653.256L698.205,740.756L546.65,653.256L546.65,478.256L698.205,390.756Z" class="hex"/>
    </g>
    <g transform="matrix(0.164582,0,0,0.164582,1015.68,220.29)">
        <path d="M698.205,390.756L849.759,478.256L849.759,653.256L698.205,740.756L546.65,653.256L546.65,478.256L698.205,390.756Z" class="hex"/>
    </g>
    <g transform="matrix(0.164582,0,0,0.164582,1265.77,220.29)">
        <path d="M698.205,390.756L849.759,478.256L849.759,653.256L698.205,740.756L546.65,653.256L546.65,478.256L698.205,390.756Z" class="hex"/>
    </g>
    <g transform="matrix(0.164582,0,0,0.164582,1315.7,220.29)">
        <path d="M698.205,390.756L849.759,478.256L849.759,653.256L698.205,740.756L546.65,653.256L546.65,478.256L698.205,390.756Z" class="hex"/>
    </g>
    <g transform="matrix(0.164582,0,0,0.164582,1365.92,220.29)">
        <path d="M698.205,390.756L849.759,478.256L849.759,653.256L698.205,740.756L546.65,653.256L546.65,478.256L698.205,390.756Z" class="hex"/>
    </g>
    <g transform="matrix(0.164582,0,0,0.164582,1415.85,220.29)">
        <path d="M698.205,390.756L849.759,478.256L849.759,653.256L698.205,740.756L546.65,653.256L546.65,478.256L698.205,390.756Z" class="hex"/>
    </g>
    <g transform="matrix(0.164582,0,0,0.164582,1465.5,220.29)">
        <path d="M698.205,390.756L849.759,478.256L849.759,653.256L698.205,740.756L546.65,653.256L546.65,478.256L698.205,390.756Z" class="hex"/>
    </g>
    <g transform="matrix(0.164582,0,0,0.164582,1515.42,220.29)">
        <path d="M698.205,390.756L849.759,478.256L849.759,653.256L698.205,740.756L546.65,653.256L546.65,478.256L698.205,390.756Z" class="hex"/>
    </g>
    <g transform="matrix(0.164582,0,0,0.164582,1565.65,220.29)">
        <path d="M698.205,390.756L849.759,478.256L849.759,653.256L698.205,740.756L546.65,653.256L546.65,478.256L698.205,390.756Z" class="hex"/>
    </g>
    <g transform="matrix(0.164582,0,0,0.164582,1615.57,220.29)">
        <path d="M698.205,390.756L849.759,478.256L849.759,653.256L698.205,740.756L546.65,653.256L546.65,478.256L698.205,390.756Z" class="hex"/>
    </g>
    <g transform="matrix(0.164582,0,0,0.164582,1665.66,220.29)">
        <path d="M698.205,390.756L849.759,478.256L849.759,653.256L698.205,740.756L546.65,653.256L546.65,478.256L698.205,390.756Z" class="hex"/>
    </g>
    <g transform="matrix(0.164582,0,0,0.164582,1715.59,220.29)">
        <path d="M698.205,390.756L849.759,478.256L849.759,653.256L698.205,740.756L546.65,653.256L546.65,478.256L698.205,390.756Z" class="hex"/>
    </g>
    <g transform="matrix(0.164582,0,0,0.164582,1765.81,220.29)">
        <path d="M698.205,390.756L849.759,478.256L849.759,653.256L698.205,740.756L546.65,653.256L546.65,478.256L698.205,390.756Z" class="hex"/>
    </g>
    <g transform="matrix(0.164582,0,0,0.164582,1815.74,220.29)">
        <path d="M698.205,390.756L849.759,478.256L849.759,653.256L698.205,740.756L546.65,653.256L546.65,478.256L698.205,390.756Z" class="hex"/>
    </g>
</svg>
