<?xml version="1.0" encoding="UTF-8" standalone="no"?>
<!DOCTYPE svg PUBLIC "-//W3C//DTD SVG 1.1//EN" "http://www.w3.org/Graphics/SVG/1.1/DTD/svg11.dtd">
<svg width="100%" height="100%" viewBox="0 0 2550 3300" version="1.1" xmlns="http://www.w3.org/2000/svg" xmlns:xlink="http://www.w3.org/1999/xlink" xml:space="preserve" xmlns:serif="http://www.serif.com/" style="fill-rule:evenodd;clip-rule:evenodd;stroke-linejoin:round;stroke-miterlimit:2;">
    <g id="My-Cube" serif:id="My Cube" transform="matrix(0.937324,0,0,0.937324,-250.597,444.698)">
        <path d="M1172.91,816.909L1450.1,976.939L1450.1,1297L1172.91,1457.03L895.735,1297L895.735,976.939L1172.91,816.909Z" style="fill:rgb(183,183,183);"/>
        <clipPath id="_clip1">
            <path d="M1172.91,816.909L1450.1,976.939L1450.1,1297L1172.91,1457.03L895.735,1297L895.735,976.939L1172.91,816.909Z"/>
        </clipPath>
        <g clip-path="url(#_clip1)">
            <g transform="matrix(1,0,0,1,276.992,163.058)">
                <path d="M1172.91,816.909L1450.1,976.939L1450.1,1297L1172.91,1457.03L895.735,1297L895.735,976.939L1172.91,816.909Z" style="fill:rgb(83,83,83);"/>
            </g>
            <g transform="matrix(1,0,0,1,-277.177,159.747)">
                <path d="M1172.91,816.909L1450.1,976.939L1450.1,1297L1172.91,1457.03L895.735,1297L895.735,976.939L1172.91,816.909Z" style="fill:rgb(223,223,223);"/>
            </g>
            <g transform="matrix(1,0,0,1,0.0385879,-317.303)">
                <path d="M1172.91,816.909L1450.1,976.939L1450.1,1297L1172.91,1457.03L895.735,1297L895.735,976.939L1172.91,816.909Z" style="fill:rgb(183,183,183);"/>
            </g>
        </g>
    </g>
    <g id="My-Cube1" serif:id="My Cube" transform="matrix(0.937324,0,0,0.937324,-610.848,1029.94)">
        <path d="M1172.91,816.909L1450.1,976.939L1450.1,1297L1172.91,1457.03L895.735,1297L895.735,976.939L1172.91,816.909Z" style="fill:rgb(183,183,183);"/>
        <clipPath id="_clip2">
            <path d="M1172.91,816.909L1450.1,976.939L1450.1,1297L1172.91,1457.03L895.735,1297L895.735,976.939L1172.91,816.909Z"/>
        </clipPath>
        <g clip-path="url(#_clip2)">
            <g transform="matrix(1,0,0,1,276.992,163.058)">
                <path d="M1172.91,816.909L1450.1,976.939L1450.1,1297L1172.91,1457.03L895.735,1297L895.735,976.939L1172.91,816.909Z" style="fill:rgb(83,83,83);"/>
            </g>
            <g transform="matrix(1,0,0,1,-277.177,159.747)">
                <path d="M1172.91,816.909L1450.1,976.939L1450.1,1297L1172.91,1457.03L895.735,1297L895.735,976.939L1172.91,816.909Z" style="fill:rgb(223,223,223);"/>
            </g>
            <g transform="matrix(1,0,0,1,0.0385879,-317.303)">
                <path d="M1172.91,816.909L1450.1,976.939L1450.1,1297L1172.91,1457.03L895.735,1297L895.735,976.939L1172.91,816.909Z" style="fill:rgb(183,183,183);"/>
            </g>
        </g>
    </g>
    <g id="My-Cube2" serif:id="My Cube" transform="matrix(0.937324,0,0,0.937324,696.037,1487.94)">
        <path d="M1172.91,816.909L1450.1,976.939L1450.1,1297L1172.91,1457.03L895.735,1297L895.735,976.939L1172.91,816.909Z" style="fill:rgb(183,183,183);"/>
        <clipPath id="_clip3">
            <path d="M1172.91,816.909L1450.1,976.939L1450.1,1297L1172.91,1457.03L895.735,1297L895.735,976.939L1172.91,816.909Z"/>
        </clipPath>
        <g clip-path="url(#_clip3)">
            <g transform="matrix(1,0,0,1,276.992,163.058)">
                <path d="M1172.91,816.909L1450.1,976.939L1450.1,1297L1172.91,1457.03L895.735,1297L895.735,976.939L1172.91,816.909Z" style="fill:rgb(83,83,83);"/>
            </g>
            <g transform="matrix(1,0,0,1,-277.177,159.747)">
                <path d="M1172.91,816.909L1450.1,976.939L1450.1,1297L1172.91,1457.03L895.735,1297L895.735,976.939L1172.91,816.909Z" style="fill:rgb(223,223,223);"/>
            </g>
            <g transform="matrix(1,0,0,1,0.0385879,-317.303)">
                <path d="M1172.91,816.909L1450.1,976.939L1450.1,1297L1172.91,1457.03L895.735,1297L895.735,976.939L1172.91,816.909Z" style="fill:rgb(183,183,183);"/>
            </g>
        </g>
    </g>
    <g id="My-Cube3" serif:id="My Cube" transform="matrix(0.937324,0,0,0.937324,-124.484,1519.71)">
        <path d="M1172.91,816.909L1450.1,976.939L1450.1,1297L1172.91,1457.03L895.735,1297L895.735,976.939L1172.91,816.909Z" style="fill:rgb(183,183,183);"/>
        <clipPath id="_clip4">
            <path d="M1172.91,816.909L1450.1,976.939L1450.1,1297L1172.91,1457.03L895.735,1297L895.735,976.939L1172.91,816.909Z"/>
        </clipPath>
        <g clip-path="url(#_clip4)">
            <g transform="matrix(1,0,0,1,276.992,163.058)">
                <path d="M1172.91,816.909L1450.1,976.939L1450.1,1297L1172.91,1457.03L895.735,1297L895.735,976.939L1172.91,816.909Z" style="fill:rgb(83,83,83);"/>
            </g>
            <g transform="matrix(1,0,0,1,-277.177,159.747)">
                <path d="M1172.91,816.909L1450.1,976.939L1450.1,1297L1172.91,1457.03L895.735,1297L895.735,976.939L1172.91,816.909Z" style="fill:rgb(223,223,223);"/>
            </g>
            <g transform="matrix(1,0,0,1,0.0385879,-317.303)">
                <path d="M1172.91,816.909L1450.1,976.939L1450.1,1297L1172.91,1457.03L895.735,1297L895.735,976.939L1172.91,816.909Z" style="fill:rgb(183,183,183);"/>
            </g>
        </g>
    </g>
    <g id="My-Cube4" serif:id="My Cube" transform="matrix(0.937324,0,0,0.937324,270.709,437.536)">
        <path d="M1172.91,816.909L1450.1,976.939L1450.1,1297L1172.91,1457.03L895.735,1297L895.735,976.939L1172.91,816.909Z" style="fill:rgb(183,183,183);"/>
        <clipPath id="_clip5">
            <path d="M1172.91,816.909L1450.1,976.939L1450.1,1297L1172.91,1457.03L895.735,1297L895.735,976.939L1172.91,816.909Z"/>
        </clipPath>
        <g clip-path="url(#_clip5)">
            <g transform="matrix(1,0,0,1,276.992,163.058)">
                <path d="M1172.91,816.909L1450.1,976.939L1450.1,1297L1172.91,1457.03L895.735,1297L895.735,976.939L1172.91,816.909Z" style="fill:rgb(83,83,83);"/>
            </g>
            <g transform="matrix(1,0,0,1,-277.177,159.747)">
                <path d="M1172.91,816.909L1450.1,976.939L1450.1,1297L1172.91,1457.03L895.735,1297L895.735,976.939L1172.91,816.909Z" style="fill:rgb(223,223,223);"/>
            </g>
            <g transform="matrix(1,0,0,1,0.0385879,-317.303)">
                <path d="M1172.91,816.909L1450.1,976.939L1450.1,1297L1172.91,1457.03L895.735,1297L895.735,976.939L1172.91,816.909Z" style="fill:rgb(183,183,183);"/>
            </g>
        </g>
    </g>
    <g id="My-Cube5" serif:id="My Cube" transform="matrix(0.937324,0,0,0.937324,0.292268,-2.97281)">
        <path d="M1172.91,816.909L1450.1,976.939L1450.1,1297L1172.91,1457.03L895.735,1297L895.735,976.939L1172.91,816.909Z" style="fill:rgb(183,183,183);"/>
        <clipPath id="_clip6">
            <path d="M1172.91,816.909L1450.1,976.939L1450.1,1297L1172.91,1457.03L895.735,1297L895.735,976.939L1172.91,816.909Z"/>
        </clipPath>
        <g clip-path="url(#_clip6)">
            <g transform="matrix(1,0,0,1,276.992,163.058)">
                <path d="M1172.91,816.909L1450.1,976.939L1450.1,1297L1172.91,1457.03L895.735,1297L895.735,976.939L1172.91,816.909Z" style="fill:rgb(83,83,83);"/>
            </g>
            <g transform="matrix(1,0,0,1,-277.177,159.747)">
                <path d="M1172.91,816.909L1450.1,976.939L1450.1,1297L1172.91,1457.03L895.735,1297L895.735,976.939L1172.91,816.909Z" style="fill:rgb(223,223,223);"/>
            </g>
            <g transform="matrix(1,0,0,1,0.0385879,-317.303)">
                <path d="M1172.91,816.909L1450.1,976.939L1450.1,1297L1172.91,1457.03L895.735,1297L895.735,976.939L1172.91,816.909Z" style="fill:rgb(183,183,183);"/>
            </g>
        </g>
    </g>
    <g id="My-Cube6" serif:id="My Cube" transform="matrix(0.937324,0,0,0.937324,521.501,-1.55455)">
        <path d="M1172.91,816.909L1450.1,976.939L1450.1,1297L1172.91,1457.03L895.735,1297L895.735,976.939L1172.91,816.909Z" style="fill:rgb(183,183,183);"/>
        <clipPath id="_clip7">
            <path d="M1172.91,816.909L1450.1,976.939L1450.1,1297L1172.91,1457.03L895.735,1297L895.735,976.939L1172.91,816.909Z"/>
        </clipPath>
        <g clip-path="url(#_clip7)">
            <g transform="matrix(1,0,0,1,276.992,163.058)">
                <path d="M1172.91,816.909L1450.1,976.939L1450.1,1297L1172.91,1457.03L895.735,1297L895.735,976.939L1172.91,816.909Z" style="fill:rgb(83,83,83);"/>
            </g>
            <g transform="matrix(1,0,0,1,-277.177,159.747)">
                <path d="M1172.91,816.909L1450.1,976.939L1450.1,1297L1172.91,1457.03L895.735,1297L895.735,976.939L1172.91,816.909Z" style="fill:rgb(223,223,223);"/>
            </g>
            <g transform="matrix(1,0,0,1,0.0385879,-317.303)">
                <path d="M1172.91,816.909L1450.1,976.939L1450.1,1297L1172.91,1457.03L895.735,1297L895.735,976.939L1172.91,816.909Z" style="fill:rgb(183,183,183);"/>
            </g>
        </g>
    </g>
    <g id="My-Cube7" serif:id="My Cube" transform="matrix(0.937324,0,0,0.937324,260.372,-448.908)">
        <path d="M1172.91,816.909L1450.1,976.939L1450.1,1297L1172.91,1457.03L895.735,1297L895.735,976.939L1172.91,816.909Z" style="fill:rgb(183,183,183);"/>
        <clipPath id="_clip8">
            <path d="M1172.91,816.909L1450.1,976.939L1450.1,1297L1172.91,1457.03L895.735,1297L895.735,976.939L1172.91,816.909Z"/>
        </clipPath>
        <g clip-path="url(#_clip8)">
            <g transform="matrix(1,0,0,1,276.992,163.058)">
                <path d="M1172.91,816.909L1450.1,976.939L1450.1,1297L1172.91,1457.03L895.735,1297L895.735,976.939L1172.91,816.909Z" style="fill:rgb(83,83,83);"/>
            </g>
            <g transform="matrix(1,0,0,1,-277.177,159.747)">
                <path d="M1172.91,816.909L1450.1,976.939L1450.1,1297L1172.91,1457.03L895.735,1297L895.735,976.939L1172.91,816.909Z" style="fill:rgb(223,223,223);"/>
            </g>
            <g transform="matrix(1,0,0,1,0.0385879,-317.303)">
                <path d="M1172.91,816.909L1450.1,976.939L1450.1,1297L1172.91,1457.03L895.735,1297L895.735,976.939L1172.91,816.909Z" style="fill:rgb(183,183,183);"/>
            </g>
        </g>
    </g>
    <g id="My-Cube8" serif:id="My Cube" transform="matrix(0.937324,0,0,0.937324,539.813,873.433)">
        <path d="M1172.91,816.909L1450.1,976.939L1450.1,1297L1172.91,1457.03L895.735,1297L895.735,976.939L1172.91,816.909Z" style="fill:rgb(183,183,183);"/>
        <clipPath id="_clip9">
            <path d="M1172.91,816.909L1450.1,976.939L1450.1,1297L1172.91,1457.03L895.735,1297L895.735,976.939L1172.91,816.909Z"/>
        </clipPath>
        <g clip-path="url(#_clip9)">
            <g transform="matrix(1,0,0,1,276.992,163.058)">
                <path d="M1172.91,816.909L1450.1,976.939L1450.1,1297L1172.91,1457.03L895.735,1297L895.735,976.939L1172.91,816.909Z" style="fill:rgb(83,83,83);"/>
            </g>
            <g transform="matrix(1,0,0,1,-277.177,159.747)">
                <path d="M1172.91,816.909L1450.1,976.939L1450.1,1297L1172.91,1457.03L895.735,1297L895.735,976.939L1172.91,816.909Z" style="fill:rgb(223,223,223);"/>
            </g>
            <g transform="matrix(1,0,0,1,0.0385879,-317.303)">
                <path d="M1172.91,816.909L1450.1,976.939L1450.1,1297L1172.91,1457.03L895.735,1297L895.735,976.939L1172.91,816.909Z" style="fill:rgb(183,183,183);"/>
            </g>
        </g>
    </g>
    <g id="My-Cube9" serif:id="My Cube" transform="matrix(0.937324,0,0,0.937324,-514.628,6.43208)">
        <path d="M1172.91,816.909L1450.1,976.939L1450.1,1297L1172.91,1457.03L895.735,1297L895.735,976.939L1172.91,816.909Z" style="fill:rgb(183,183,183);"/>
        <clipPath id="_clip10">
            <path d="M1172.91,816.909L1450.1,976.939L1450.1,1297L1172.91,1457.03L895.735,1297L895.735,976.939L1172.91,816.909Z"/>
        </clipPath>
        <g clip-path="url(#_clip10)">
            <g transform="matrix(1,0,0,1,276.992,163.058)">
                <path d="M1172.91,816.909L1450.1,976.939L1450.1,1297L1172.91,1457.03L895.735,1297L895.735,976.939L1172.91,816.909Z" style="fill:rgb(83,83,83);"/>
            </g>
            <g transform="matrix(1,0,0,1,-277.177,159.747)">
                <path d="M1172.91,816.909L1450.1,976.939L1450.1,1297L1172.91,1457.03L895.735,1297L895.735,976.939L1172.91,816.909Z" style="fill:rgb(223,223,223);"/>
            </g>
            <g transform="matrix(1,0,0,1,0.0385879,-317.303)">
                <path d="M1172.91,816.909L1450.1,976.939L1450.1,1297L1172.91,1457.03L895.735,1297L895.735,976.939L1172.91,816.909Z" style="fill:rgb(183,183,183);"/>
            </g>
        </g>
    </g>
    <g id="My-Cube10" serif:id="My Cube" transform="matrix(0.937324,0,0,0.937324,791.067,437.041)">
        <path d="M1172.91,816.909L1450.1,976.939L1450.1,1297L1172.91,1457.03L895.735,1297L895.735,976.939L1172.91,816.909Z" style="fill:rgb(183,183,183);"/>
        <clipPath id="_clip11">
            <path d="M1172.91,816.909L1450.1,976.939L1450.1,1297L1172.91,1457.03L895.735,1297L895.735,976.939L1172.91,816.909Z"/>
        </clipPath>
        <g clip-path="url(#_clip11)">
            <g transform="matrix(1,0,0,1,276.992,163.058)">
                <path d="M1172.91,816.909L1450.1,976.939L1450.1,1297L1172.91,1457.03L895.735,1297L895.735,976.939L1172.91,816.909Z" style="fill:rgb(83,83,83);"/>
            </g>
            <g transform="matrix(1,0,0,1,-277.177,159.747)">
                <path d="M1172.91,816.909L1450.1,976.939L1450.1,1297L1172.91,1457.03L895.735,1297L895.735,976.939L1172.91,816.909Z" style="fill:rgb(223,223,223);"/>
            </g>
            <g transform="matrix(1,0,0,1,0.0385879,-317.303)">
                <path d="M1172.91,816.909L1450.1,976.939L1450.1,1297L1172.91,1457.03L895.735,1297L895.735,976.939L1172.91,816.909Z" style="fill:rgb(183,183,183);"/>
            </g>
        </g>
    </g>
    <g id="My-Cube11" serif:id="My Cube" transform="matrix(0.937324,0,0,0.937324,1044.44,-3.61326)">
        <path d="M1172.91,816.909L1450.1,976.939L1450.1,1297L1172.91,1457.03L895.735,1297L895.735,976.939L1172.91,816.909Z" style="fill:rgb(183,183,183);"/>
        <clipPath id="_clip12">
            <path d="M1172.91,816.909L1450.1,976.939L1450.1,1297L1172.91,1457.03L895.735,1297L895.735,976.939L1172.91,816.909Z"/>
        </clipPath>
        <g clip-path="url(#_clip12)">
            <g transform="matrix(1,0,0,1,276.992,163.058)">
                <path d="M1172.91,816.909L1450.1,976.939L1450.1,1297L1172.91,1457.03L895.735,1297L895.735,976.939L1172.91,816.909Z" style="fill:rgb(83,83,83);"/>
            </g>
            <g transform="matrix(1,0,0,1,-277.177,159.747)">
                <path d="M1172.91,816.909L1450.1,976.939L1450.1,1297L1172.91,1457.03L895.735,1297L895.735,976.939L1172.91,816.909Z" style="fill:rgb(223,223,223);"/>
            </g>
            <g transform="matrix(1,0,0,1,0.0385879,-317.303)">
                <path d="M1172.91,816.909L1450.1,976.939L1450.1,1297L1172.91,1457.03L895.735,1297L895.735,976.939L1172.91,816.909Z" style="fill:rgb(183,183,183);"/>
            </g>
        </g>
    </g>
</svg>
